HIERARCHY
ROOT SpineBase
{
  OFFSET 0.000000 0.000000 0.000000
  CHANNELS 6 Xposition Yposition Zposition Zrotation Xrotation Yrotation
  JOINT SpineMid
  {
    OFFSET 0.000000 22.322381 0.000000
    CHANNELS 3 Zrotation Xrotation Yrotation
    JOINT SpineShoulder
    {
      OFFSET 0.137481 16.821011 -0.816421
      CHANNELS 3 Zrotation Xrotation Yrotation
      JOINT Neck
      {
        OFFSET 0.030579 5.652687 -0.548385
        CHANNELS 3 Zrotation Xrotation Yrotation
        JOINT Head
        {
          OFFSET -0.467896 11.655256 1.617392
          CHANNELS 3 Zrotation Xrotation Yrotation
          End Site
          {
            OFFSET 0 0 0
          }
        }
      }
      JOINT ShoulderLeft
      {
        OFFSET -11.867202 -3.373140 4.003049
        CHANNELS 3 Zrotation Xrotation Yrotation
        JOINT ElbowLeft
        {
          OFFSET -7.072479 -20.863258 -0.448541
          CHANNELS 3 Zrotation Xrotation Yrotation
          JOINT WristLeft
          {
            OFFSET -1.422014 -8.444215 -17.126766
            CHANNELS 3 Zrotation Xrotation Yrotation
            JOINT HandLeft
            {
              OFFSET -0.485664 -2.092675 -5.315305
              CHANNELS 3 Zrotation Xrotation Yrotation
              JOINT HandTipLeft
              {
                OFFSET -0.644973 -2.524971 -7.614149
                CHANNELS 3 Zrotation Xrotation Yrotation
                End Site
                {
                  OFFSET 0 0 0
                }
              }
              JOINT ThumbLeft
              {
                OFFSET -2.511724 1.178636 -1.297482
                CHANNELS 3 Zrotation Xrotation Yrotation
                End Site
                {
                  OFFSET 0 0 0
                }
              }
            }
          }
        }
      }
      JOINT ShoulderRight
      {
        OFFSET 8.897912 -2.908858 -8.728308
        CHANNELS 3 Zrotation Xrotation Yrotation
        JOINT ElbowRight
        {
          OFFSET -1.256713 -19.315960 -5.609190
          CHANNELS 3 Zrotation Xrotation Yrotation
          JOINT WristRight
          {
            OFFSET 7.572674 -10.904154 -11.912927
            CHANNELS 3 Zrotation Xrotation Yrotation
            JOINT HandRight
            {
              OFFSET 0.267712 -0.928794 -0.178981
              CHANNELS 3 Zrotation Xrotation Yrotation
              JOINT HandTipRight
              {
                OFFSET -2.683222 -3.930737 -1.348295
                CHANNELS 3 Zrotation Xrotation Yrotation
                End Site
                {
                  OFFSET 0 0 0
                }
              }
              JOINT ThumbRight
              {
                OFFSET -3.814594 -1.414155 -3.442077
                CHANNELS 3 Zrotation Xrotation Yrotation
                End Site
                {
                  OFFSET 0 0 0
                }
              }
            }
          }
        }
      }
    }
  }
  JOINT HipLeft
  {
    OFFSET -5.310783 0.991328 -0.244130
    CHANNELS 3 Zrotation Xrotation Yrotation
    JOINT KneeLeft
    {
      OFFSET -20.763235 -2.497348 -22.414320
      CHANNELS 3 Zrotation Xrotation Yrotation
      JOINT AnkleLeft
      {
        OFFSET -0.112232 -35.065122 -0.474614
        CHANNELS 3 Zrotation Xrotation Yrotation
        JOINT FootLeft
        {
          OFFSET -4.792873 -1.573868 -10.126210
          CHANNELS 3 Zrotation Xrotation Yrotation
          End Site
          {
            OFFSET 0 0 0
          }
        }
      }
    }
  }
  JOINT HipRight
  {
    OFFSET 4.884056 1.448218 -5.416885
    CHANNELS 3 Zrotation Xrotation Yrotation
    JOINT KneeRight
    {
      OFFSET -23.339776 0.567728 -22.258040
      CHANNELS 3 Zrotation Xrotation Yrotation
      JOINT AnkleRight
      {
        OFFSET 8.399877 -38.488717 -6.082773
        CHANNELS 3 Zrotation Xrotation Yrotation
        JOINT FootRight
        {
          OFFSET -4.912874 -1.543173 -10.103982
          CHANNELS 3 Zrotation Xrotation Yrotation
          End Site
          {
            OFFSET 0 0 0
          }
        }
      }
    }
  }
}
MOTION
Frames: 9
Frame Time: 0.033333
32.346242 40.460198 386.961909 0.000000 0.000000 26.902763 -0.000000 -0.000000 -26.902763 -0.000000 0.000000 0.000000 -0.000000 0.000000 0.000000 0.000000 0.000000 0.000000 -0.000000 0.000000 0.000000 -0.000000 0.000000 0.000000 -0.000000 0.000000 0.000000 -0.000000 0.000000 0.000000 0.000000 0.000000 0.000000 0.000000 0.000000 0.000000 -0.000000 0.000000 0.000000 -0.000000 0.000000 0.000000 -0.000000 0.000000 0.000000 -0.000000 0.000000 0.000000 0.000000 0.000000 0.000000 0.000000 0.000000 0.000000 -0.000000 -0.000000 -26.902763 -0.000000 0.000000 0.000000 -0.000000 0.000000 0.000000 0.000000 0.000000 0.000000 -0.000000 -0.000000 -26.902763 -0.000000 0.000000 0.000000 -0.000000 0.000000 0.000000 0.000000 0.000000 0.000000
32.262852 40.339478 386.938924 -0.208399 -0.105623 26.505433 0.233632 0.001516 -26.505628 -0.000000 0.000000 0.000000 -0.000000 0.000000 0.000000 0.000000 0.000000 0.000000 0.020109 1.556612 -0.528290 0.513239 -2.127881 -0.410042 -1.378972 1.582869 2.819231 1.194170 -1.356483 -2.967547 0.000000 0.000000 0.000000 0.000000 0.000000 0.000000 1.429088 -2.376815 -0.232297 -3.515997 -3.623334 -1.725920 -9.634280 -1.428992 2.625491 19.194226 2.419902 -1.129352 0.000000 0.000000 0.000000 0.000000 0.000000 0.000000 0.268864 0.169848 -27.481722 0.046424 -0.165595 0.976108 -0.000000 0.000000 0.000000 0.000000 0.000000 0.000000 0.469892 -0.833213 -28.939905 -1.794387 -0.438911 2.415969 1.227228 1.004132 0.014383 0.000000 0.000000 0.000000
32.181980 40.258354 386.954286 -0.414286 -0.207766 26.142917 0.463447 0.003968 -26.143685 -0.000000 0.000000 0.000000 -0.000000 0.000000 0.000000 0.000000 0.000000 0.000000 0.227954 2.862531 -0.981284 0.678217 -3.869731 -0.537286 -2.482362 2.697986 5.050862 2.137258 -2.402437 -5.416650 0.000000 0.000000 0.000000 0.000000 0.000000 0.000000 2.645962 -3.695910 -0.447436 -6.680156 -5.760281 -1.764513 -14.946781 1.463920 5.564434 30.892243 -1.002677 -2.874830 0.000000 0.000000 0.000000 0.000000 0.000000 0.000000 0.549126 0.275026 -28.051118 -0.670815 -1.312055 1.910781 0.756801 1.007770 -0.020123 0.000000 0.000000 0.000000 0.954712 -1.795023 -30.888439 -3.564325 -0.865646 4.724505 2.389937 1.966319 0.010321 0.000000 0.000000 0.000000
32.103624 40.216827 387.007996 -0.618217 -0.306713 25.812610 0.690083 0.006908 -25.814306 -0.000000 0.000000 0.000000 -0.000000 0.000000 0.000000 0.000000 0.000000 0.000000 0.613201 3.940983 -1.372178 0.495825 -5.252119 -0.397709 -3.246519 3.361005 6.639993 2.844570 -3.091568 -7.334408 0.000000 0.000000 0.000000 0.000000 0.000000 0.000000 3.639310 -3.890839 -0.688489 -9.602804 -7.270811 -0.419493 -20.413764 5.323018 8.576381 40.009768 -5.865828 -4.186393 0.000000 0.000000 0.000000 0.000000 0.000000 0.000000 0.840970 0.314766 -28.605883 -1.003575 -1.821192 2.791277 1.199623 1.534590 -1.067424 0.000000 0.000000 0.000000 1.450262 -2.880285 -32.726793 -5.304498 -1.260254 6.912231 3.588994 2.974808 -1.048682 0.000000 0.000000 0.000000
32.027785 40.214896 387.100052 -0.820732 -0.402734 25.512313 0.914158 0.009943 -25.515277 -0.000000 0.000000 0.000000 -0.610056 0.670641 0.115082 0.000000 0.000000 0.000000 1.171011 4.810221 -1.710201 -0.037880 -6.297284 -0.001587 -3.631272 3.590352 7.547447 3.330227 -3.393472 -8.709408 0.000000 0.000000 0.000000 0.000000 0.000000 0.000000 4.400568 -2.899019 -0.988163 -12.535703 -8.501173 2.357829 -27.079939 10.168780 12.025419 48.122943 -11.693927 -5.067928 0.000000 0.000000 0.000000 0.000000 0.000000 0.000000 1.144411 0.288715 -29.141653 -1.340350 -2.229473 3.621361 1.513243 1.923626 -1.237867 0.000000 0.000000 0.000000 1.953442 -4.082045 -34.436883 -7.010780 -1.601953 8.968513 4.602592 3.853159 -1.237960 0.000000 0.000000 0.000000
31.954462 40.252562 387.230456 -1.022363 -0.496079 25.240197 1.136280 0.012713 -25.244749 -0.000000 0.000000 0.000000 -0.981067 0.959729 0.182742 0.000000 0.000000 0.000000 1.901311 5.483830 -2.001336 -0.931287 -7.023298 0.645967 -3.621389 3.401847 7.751386 3.604562 -3.292836 -9.530474 0.000000 0.000000 0.000000 0.000000 0.000000 0.000000 4.923777 -0.657927 -1.365643 -15.910796 -9.416122 7.019379 -34.995472 16.602298 16.200184 55.701961 -18.348589 -5.496659 0.000000 0.000000 0.000000 0.000000 0.000000 0.000000 1.459351 0.196900 -29.654721 -1.684905 -2.535371 4.400773 1.782939 2.250771 -1.314146 0.000000 0.000000 0.000000 2.462398 -5.391881 -36.004169 -8.679918 -1.869660 10.885350 5.506376 4.661314 -1.339630 0.000000 0.000000 0.000000
31.784188 40.319701 387.406566 -1.338228 -0.541245 25.111003 1.441416 -0.077907 -25.116344 -0.000000 0.000000 0.000000 -1.467505 1.131794 0.263362 0.000000 0.000000 0.000000 3.104815 6.163690 -2.343928 -2.537873 -7.223026 1.615712 -3.283606 2.924281 7.267128 3.843143 -4.888527 -10.514630 0.000000 0.000000 0.000000 0.000000 0.000000 0.000000 5.955617 1.074923 -1.857939 -24.635811 -9.865811 18.271217 -38.427716 28.092393 18.184382 58.183658 -23.018426 -7.409230 0.000000 0.000000 0.000000 0.000000 0.000000 0.000000 1.863789 0.093757 -30.652642 -2.109177 -3.004555 5.517469 2.180006 2.659540 -1.344926 0.000000 0.000000 0.000000 3.021146 -6.939706 -37.996420 -10.529075 -2.237960 13.137782 6.545335 5.524973 -1.426257 0.000000 0.000000 0.000000
31.658458 40.470494 387.640504 -1.636146 -0.663184 24.786512 1.001729 0.315950 -24.835205 -0.149586 0.382139 -0.054809 -1.035743 1.252363 0.469080 0.000000 0.000000 0.000000 5.575182 5.839338 -2.363457 -4.331417 -6.428793 2.007870 -2.579875 0.865739 6.214472 3.490013 -1.595046 -9.293817 0.000000 0.000000 0.000000 0.000000 0.000000 0.000000 6.538874 5.412821 -2.101394 -33.122965 -9.033471 32.529711 -38.002975 39.247858 14.635652 59.178956 -27.333447 -9.857088 0.000000 0.000000 0.000000 0.000000 0.000000 0.000000 2.275072 0.038534 -31.233093 -2.418606 -3.256606 6.412994 2.426818 2.872723 -1.249550 0.000000 0.000000 0.000000 3.599508 -8.280729 -39.229309 -12.056604 -2.328231 14.860162 7.261541 6.064276 -1.387599 0.000000 0.000000 0.000000
31.624871 40.629395 387.926420 -1.804581 -0.842232 24.373806 0.972962 0.401849 -24.435697 -0.130222 0.510979 -0.062662 -1.592304 1.850001 0.639481 0.000000 0.000000 0.000000 7.059046 6.187696 -2.581370 -6.727795 -6.673386 4.191696 -1.233480 -0.675980 3.827966 3.158627 0.670828 -8.408676 0.000000 0.000000 0.000000 0.000000 0.000000 0.000000 5.749857 14.273847 -2.619969 -40.057677 -5.778997 45.407078 -34.098340 47.212491 3.026462 62.868503 -23.940260 -13.976632 0.000000 0.000000 0.000000 0.000000 0.000000 0.000000 2.603473 -0.068521 -31.342044 -2.693808 -3.235803 6.931313 2.509328 2.928214 -0.980636 0.000000 0.000000 0.000000 4.014928 -8.811613 -39.244772 -12.439224 -2.010605 15.356143 7.123660 6.079582 -1.083753 0.000000 0.000000 0.000000
